<mxfile host="app.diagrams.net" modified="2024-05-16T02:51:13.626Z" agent="Mozilla/5.0 (Windows NT 10.0; Win64; x64; rv:126.0) Gecko/20100101 Firefox/126.0" etag="_zgwAJuYvFw72WlJhS5x" version="23.1.6" type="github">
  <diagram name="Page-1" id="S0XgtivN0bEylLzCPmx3">
    <mxGraphModel dx="2868" dy="1606" grid="0" gridSize="10" guides="1" tooltips="1" connect="1" arrows="1" fold="1" page="0" pageScale="1" pageWidth="827" pageHeight="1169" math="0" shadow="0">
      <root>
        <mxCell id="0" />
        <mxCell id="1" parent="0" />
        <mxCell id="UViIAbYva22EIAkb4Kvl-2" value="" style="rounded=0;whiteSpace=wrap;html=1;" vertex="1" parent="1">
          <mxGeometry width="1920" height="1080" as="geometry" />
        </mxCell>
        <mxCell id="UViIAbYva22EIAkb4Kvl-3" value="" style="rounded=1;whiteSpace=wrap;html=1;arcSize=18;container=1;" vertex="1" parent="1">
          <mxGeometry x="660" y="240" width="600" height="600" as="geometry" />
        </mxCell>
        <mxCell id="UViIAbYva22EIAkb4Kvl-4" value="" style="rounded=1;whiteSpace=wrap;html=1;" vertex="1" parent="UViIAbYva22EIAkb4Kvl-3">
          <mxGeometry x="104" y="68" width="392" height="108" as="geometry" />
        </mxCell>
        <mxCell id="UViIAbYva22EIAkb4Kvl-6" value="" style="rounded=1;whiteSpace=wrap;html=1;" vertex="1" parent="UViIAbYva22EIAkb4Kvl-3">
          <mxGeometry x="104" y="216" width="392" height="108" as="geometry" />
        </mxCell>
        <mxCell id="UViIAbYva22EIAkb4Kvl-7" value="" style="rounded=1;whiteSpace=wrap;html=1;" vertex="1" parent="UViIAbYva22EIAkb4Kvl-3">
          <mxGeometry x="110" y="418" width="176" height="78" as="geometry" />
        </mxCell>
        <mxCell id="UViIAbYva22EIAkb4Kvl-9" value="" style="rounded=1;whiteSpace=wrap;html=1;" vertex="1" parent="UViIAbYva22EIAkb4Kvl-3">
          <mxGeometry x="320" y="418" width="176" height="78" as="geometry" />
        </mxCell>
      </root>
    </mxGraphModel>
  </diagram>
</mxfile>
